# AST/ASF file generated using VICON BodyLanguage
# -----------------------------------------------
:version 1.10
:name VICON
:units
  mass 1.0
  length 0.45
  angle deg
:documentation
   .ast/.asf automatically generated from VICON data using
   VICON BodyBuilder and BodyLanguage model FoxedUp or BRILLIANT.MOD
:root
   order TX TY TZ RX RY RZ
   axis XYZ
   position 0 0 0  
   orientation 0 0 0 
:bonedata
  begin
     id 1 
     name lhipjoint
     direction 0.575328 -0.747301 0.332475 
     length 2.40933 
     axis 0 0 0  XYZ
  end
  begin
     id 2 
     name lfemur
     direction 0.34202 -0.939693 0  
     length 7.31453  
     axis 0 0 20  XYZ
    dof rx ry rz
    limits (-160.0 20.0)
           (-70.0 70.0)
           (-60.0 70.0)
  end
  begin
     id 3 
     name ltibia
     direction 0.34202 -0.939693 0   
     length 7.82185   
     axis 0 0 20   XYZ
    dof rx
    limits (-10.0 170.0)
  end
  begin
     id 4 
     name lfoot
     direction 0.0795993 -0.218697 0.972541   
     length 2.19173   
     axis -90 7.62852e-016 20   XYZ
    dof rx rz
    limits (-45.0 90.0)
           (-70.0 20.0)
  end
  begin
     id 5 
     name ltoes
     direction 1.53537e-011 -4.21894e-011 1   
     length 1.10023   
     axis -90 7.62852e-016 20   XYZ
    dof rx
    limits (-90.0 20.0)
  end
  begin
     id 6 
     name rhipjoint
     direction -0.513884 -0.783789 0.348708   
     length 2.29716  
     axis 0 0 0  XYZ 
  end
  begin
     id 7 
     name rfemur
     direction -0.34202 -0.939693 0   
     length 7.59573   
     axis 0 0 -20   XYZ
    dof rx ry rz
    limits (-160.0 20.0)
           (-70.0 70.0)
           (-70.0 60.0)
  end
  begin
     id 8 
     name rtibia
     direction -0.34202 -0.939693 0   
     length 7.66402   
     axis 0 0 -20   XYZ
    dof rx
    limits (-10.0 170.0)
 end
 begin
     id 9 
     name rfoot
     direction -0.137793 -0.378584 0.915253   
     length 2.27056  
     axis -90 -7.62852e-016 -20   XYZ
    dof rx rz
    limits (-45.0 90.0)
           (-20.0 70.0)
  end
  begin
     id 10 
     name rtoes
     direction -1.53493e-011 -4.22159e-011 1   
     length 1.11766   
     axis -90 -7.62852e-016 -20   XYZ
    dof rx
    limits (-90.0 20.0)
  end
  begin
     id 11 
     name lowerback
     direction -0.00732775 0.998356 -0.05685   
     length 2.16513   
     axis 0 0 0   XYZ
    dof rx ry rz
    limits (-20.0 45.0)
           (-30.0 30.0)
           (-30.0 30.0)
  end
  begin
     id 12 
     name upperback
     direction 0.0218081 0.999627 -0.0164647   
     length 2.16755   
     axis 0 0 0   XYZ
    dof rx ry rz
    limits (-20.0 45.0)
           (-30.0 30.0)
           (-30.0 30.0)
  end
  begin
     id 13 
     name thorax
     direction 0.02365 0.999661 0.0108914   
     length 2.16932   
     axis 0 0 0   XYZ
    dof rx ry rz
    limits (-20.0 45.0)
           (-30.0 30.0)
           (-30.0 30.0)
  end
  begin
     id 14 
     name lowerneck
     direction -0.0523929 0.978385 0.200044   
     length 1.63877   
     axis 0 0 0   XYZ
    dof rx ry rz
    limits (-20.0 45.0)
           (-30.0 30.0)
           (-30.0 30.0)
  end
  begin
     id 15 
     name upperneck
     direction 0.0448674 0.981321 -0.187074   
     length 1.69014   
     axis 0 0 0   XYZ
    dof rx ry rz
    limits (-20.0 45.0)
           (-30.0 30.0)
           (-30.0 30.0)
  end
  begin
     id 16
     name head
     direction 0.0199089 0.996118 -0.0857429  
     length 1.70094  
     axis 0 0 0   XYZ
    dof rx ry rz
    limits (-20.0 45.0)
           (-30.0 30.0)
           (-30.0 30.0)
  end
  begin
     id 17 
     name lclavicle
     direction 0.940366 0.30191 -0.156722  
     length 3.37521  
     axis 0 0 0   XYZ
    dof ry rz
    limits (-20.0 10.0)
           (0.0 20.0)
  end
  begin
     id 18 
     name lhumerus
     direction 1 -4.4897e-011 -1.7911e-027   
     length 5.25287   
     axis 180 -30 -90   XYZ
    dof rx ry rz
    limits (-60.0 90.0)
           (-90.0 90.0)
           (-90.0 90.0)
  end
  begin
     id 19
     name lradius
     direction 1 -4.48951e-011 1.04424e-027   
     length 3.51014   
     axis 180 -30 -90   XYZ
    dof rx
    limits (-10.0 170.0)
  end
  begin
     id 20
     name lwrist
     direction 1 -4.48997e-011 -9.5942e-028   
     length 1.75507   
     axis 8.48502e-016 90 90   XYZ
    dof ry
    limits (-180.0 0.0)
 end
  begin
     id 21 
     name lhand
     direction 1 -4.48831e-011 -1.90777e-027   
     length 0.706179   
     axis 1.22306e-015 90 90   XYZ
    dof rx rz
    limits (-90.0 90.0)
           (-45.0 45.0)
  end
  begin
     id 22 
     name lfingers
     direction 1 -4.49108e-011 -3.85244e-027   
     length 0.569339   
     axis 2.44611e-015 90 90   XYZ
    dof rx
    limits (0.0 90.0)
  end
  begin
     id 23
     name lthumb
     direction 0.707107 -6.34953e-011 0.707107   
     length 0.817461   
     axis -90 45 -1.62303e-014   XYZ
    dof rx rz
    limits (-45.0 45.0)
           (-45.0 45.0)
  end
  begin
     id 24 
     name rclavicle
     direction -0.905329 0.382405 -0.184787   
     length 3.30787  
     axis 0 0 0   XYZ 
    dof ry rz
    limits (-10.0 20.0)
           (-20.0 0.0)
  end
  begin
     id 25 
     name rhumerus
     direction -1 -4.48953e-011 -9.15316e-029  
     length 5.28721   
     axis 180 30 90   XYZ
    dof rx ry rz
    limits (-90.0 60.0)
           (-90.0 90.0)
           (-90.0 90.0)
  end
  begin
     id 26 
     name rradius
     direction -1 -4.48987e-011 9.37824e-028   
     length 3.50544   
     axis 180 30 90   XYZ
    dof rx
    limits (-10.0 170.0)
  end
  begin
     id 27 
     name rwrist
     direction -1 -4.48967e-011 -9.58414e-028   
     length 1.75272   
     axis 8.48502e-016 -90 -90   XYZ
    dof ry
    limits (-180.0 0.0)
  end
  begin
     id 28
     name rhand
     direction -1 -4.48904e-011 -1.91266e-027   
     length 0.884996   
     axis 1.22306e-015 -90 -90   XYZ
    dof rx rz
    limits (-90.0 90.0)
           (-45.0 45.0)
  end
  begin
     id 29
     name rfingers
     direction -1 -4.4909e-011 -3.85015e-027   
     length 0.713507   
     axis 2.44611e-015 -90 -90   XYZ
    dof rx
    limits (0.0 90.0)
  end
  begin
     id 30
     name rthumb
     direction -0.707107 -6.34853e-011 0.707107   
     length 1.02446   
     axis -90 -45 1.62303e-014   XYZ
    dof rx rz
    limits (-45.0 45.0)
           (-45.0 45.0)
  end
:hierarchy
  begin
    root lhipjoint rhipjoint lowerback
    lhipjoint lfemur
    lfemur ltibia
    ltibia lfoot
    lfoot ltoes
    rhipjoint rfemur
    rfemur rtibia
    rtibia rfoot
    rfoot rtoes
    lowerback upperback
    upperback thorax
    thorax lowerneck lclavicle rclavicle
    lowerneck upperneck
    upperneck head
    lclavicle lhumerus
    lhumerus lradius
    lradius lwrist
    lwrist lhand lthumb
    lhand lfingers
    rclavicle rhumerus
    rhumerus rradius
    rradius rwrist
    rwrist rhand rthumb
    rhand rfingers
  end

#!OML:ASF F:\twosubjects\two\Thursday\Session 1\justin.ASF
:FULLY-SPECIFIED
:DEGREES
26
root 21.809 13.0841 3.11926 -169.775 -83.8663 147.697
lowerback 30.8718 2.94515 -1.20801
upperback 15.9725 1.46182 3.32172
thorax 1.12274 -0.401079 3.93654
lowerneck -20.7715 -4.83605 -12.7674
upperneck 9.45841 -4.9966 13.1159
head 6.94718 -1.78931 5.82543
rclavicle -1.47101e-014 -1.66979e-014
rhumerus -0.517173 25.119 -78.125
rradius 67.0269
rwrist 7.23813
rhand -13.3722 23.053
rfingers 7.12502
rthumb 12.7344 -6.53869
lclavicle -1.47101e-014 -1.66979e-014
lhumerus -1.66302 -25.8912 89.7166
lradius 58.7055
lwrist -24.6632
lhand -16.2091 30.1404
lfingers 7.12502
lthumb 9.99843 59.8829
rfemur -48.9646 -2.76164 11.1627
rtibia 64.9486
rfoot 6.2529 -5.98695
rtoes 0.676318
lfemur -45.1606 8.40693 -11.5151
ltibia 60.4217
lfoot 9.71554 -9.37224
ltoes 1.50422
27
root 21.8108 13.0784 3.11771 -169.736 -83.8367 147.725
lowerback 30.6276 2.72593 -1.34673
upperback 15.937 1.15781 3.41116
thorax 1.20832 -0.567067 4.20292
lowerneck -20.3978 -4.95477 -13.2774
upperneck 9.41219 -5.03787 13.0376
head 6.88578 -1.84531 5.87764
rclavicle 5.96354e-015 -1.11319e-014
rhumerus -0.282649 25.9649 -77.8819
rradius 66.9619
rwrist 7.0656
rhand -13.3725 22.9675
rfingers 7.12502
rthumb 12.7341 -6.62417
lclavicle 5.96354e-015 -1.11319e-014
lhumerus -1.92111 -24.5945 90.1182
lradius 58.7303
lwrist -24.3954
lhand -15.9484 29.4987
lfingers 7.12502
lthumb 10.25 59.229
rfemur -49.0918 -2.81005 11.2014
rtibia 64.9751
rfoot 6.29861 -5.93372
rtoes 0.973777
lfemur -45.2419 8.41174 -11.5134
ltibia 60.4403
lfoot 9.67727 -9.33256
ltoes 1.32056
28
root 21.8116 13.0748 3.11508 -170.12 -83.7697 148.215
lowerback 30.3426 2.67103 -1.32608
upperback 15.9689 1.09769 3.39845
thorax 1.37474 -0.595964 4.1917
lowerneck -20.2782 -5.21128 -13.2862
upperneck 9.33779 -5.39225 13.0324
head 6.89172 -2.0204 5.82962
rclavicle 1.78906e-014 -3.18055e-015
rhumerus -0.0926365 26.1526 -77.8935
rradius 66.8372
rwrist 7.04981
rhand -13.2772 23.0058
rfingers 7.12502
rthumb 12.8259 -6.58011
lclavicle 1.78906e-014 -3.18055e-015
lhumerus -1.76211 -24.2686 89.9426
lradius 58.6842
lwrist -23.9599
lhand -15.7549 29.7089
lfingers 7.12502
lthumb 10.4366 59.4299
rfemur -49.254 -2.786 11.2899
rtibia 64.9976
rfoot 6.3313 -5.92047
rtoes 0.831551
lfemur -45.3384 8.44167 -11.4421
ltibia 60.4466
lfoot 9.54298 -9.3901
ltoes 0.234366
29
root 21.8142 13.0778 3.11351 -170.137 -83.6776 148.205
lowerback 30.32 2.62604 -1.38061
upperback 15.9334 1.0301 3.30551
thorax 1.34842 -0.625754 4.13848
lowerneck -20.1569 -5.50351 -13.2325
upperneck 9.3868 -5.85156 13.1972
head 6.95718 -2.22975 5.81767
rclavicle 8.34896e-015 -7.95139e-016
rhumerus -0.182057 26.3505 -78.2432
rradius 66.7467
rwrist 7.23349
rhand -13.4316 23.1582
rfingers 7.12502
rthumb 12.6771 -6.43702
lclavicle 8.34896e-015 -7.95139e-016
lhumerus -1.79898 -24.1121 89.5848
lradius 58.6084
lwrist -23.4892
lhand -15.703 29.9115
lfingers 7.12502
lthumb 10.4866 59.6299
rfemur -49.2307 -2.64644 11.2735
rtibia 64.9947
rfoot 6.32658 -5.97413
rtoes 0.559506
lfemur -45.2666 8.4277 -11.4165
ltibia 60.4313
lfoot 9.51707 -9.45008
ltoes 0.0466694
30
root 21.8161 13.0801 3.11241 -169.6 -83.6167 147.556
lowerback 30.259 2.59056 -1.67992
upperback 16.0018 0.892613 3.27902
thorax 1.46348 -0.723812 4.31909
lowerneck -20.3433 -5.74924 -13.0401
upperneck 9.66335 -6.20775 13.0057
head 7.11272 -2.40074 5.67443
rclavicle -8.34896e-015 -2.38542e-014
rhumerus 0.174658 26.8074 -78.2984
rradius 66.54
rwrist 7.09515
rhand -13.9548 23.1144
rfingers 7.12502
rthumb 12.1727 -6.51145
lclavicle -8.34896e-015 -2.38542e-014
lhumerus -1.91131 -23.5462 89.4684
lradius 58.6007
lwrist -23.3373
lhand -15.8357 29.9941
lfingers 7.12502
lthumb 10.3586 59.719
rfemur -49.1175 -2.66156 11.2043
rtibia 64.9908
rfoot 6.32696 -5.8944
rtoes 0.731169
lfemur -45.1181 8.39741 -11.4685
ltibia 60.3991
lfoot 9.70778 -9.28505
ltoes 1.50484
31
root 21.8152 13.0757 3.11082 -169.638 -83.5436 147.605
lowerback 30.0702 2.59999 -1.85422
upperback 16.0718 0.854054 3.29446
thorax 1.62934 -0.763343 4.44518
lowerneck -20.5104 -5.92035 -12.9185
upperneck 9.95949 -6.44344 12.8005
head 7.25561 -2.51786 5.55403
rclavicle 1.59028e-015 4.53229e-014
rhumerus 0.603875 27.0747 -78.1598
rradius 66.3228
rwrist 6.83127
rhand -14.3521 23.0962
rfingers 7.12502
rthumb 11.7896 -6.55194
lclavicle 1.59028e-015 4.53229e-014
lhumerus -1.88821 -23.1629 89.4539
lradius 58.5852
lwrist -23.2897
lhand -15.8511 30.1209
lfingers 7.12502
lthumb 10.3438 59.8465
rfemur -49.1802 -2.73597 11.2472
rtibia 64.994
rfoot 6.36488 -5.76861
rtoes 0.955063
lfemur -45.1024 8.47089 -11.4588
ltibia 60.3716
lfoot 9.80087 -9.08635
ltoes 2.31122
32
root 21.8159 13.0732 3.1108 -170.375 -83.5426 148.396
lowerback 30.099 2.53431 -1.48434
upperback 15.9568 0.885458 3.20599
thorax 1.48347 -0.702812 4.12569
lowerneck -20.1421 -6.0555 -12.9868
upperneck 9.99698 -6.67805 12.9335
head 7.24754 -2.63324 5.58157
rclavicle -9.54166e-015 1.59028e-014
rhumerus 0.243728 26.72 -78.5426
rradius 66.2563
rwrist 7.07149
rhand -14.5552 23.2698
rfingers 7.12502
rthumb 11.5937 -6.38948
lclavicle -9.54166e-015 1.59028e-014
lhumerus -2.08361 -23.378 89.5025
lradius 58.6033
lwrist -23.2318
lhand -15.7786 30.1764
lfingers 7.12502
lthumb 10.4137 59.8986
rfemur -49.242 -2.67439 11.3393
rtibia 64.9842
rfoot 6.3809 -5.83663
rtoes 0.781402
lfemur -45.1497 8.50587 -11.3573
ltibia 60.3526
lfoot 9.73229 -9.13502
ltoes 1.66167
33
root 21.821 13.0763 3.1122 -171.224 -83.5721 149.234
lowerback 30.1758 2.4667 -1.0961
upperback 15.8926 0.906957 3.13826
thorax 1.37882 -0.654653 3.82182
lowerneck -19.7415 -6.15296 -13.0478
upperneck 9.88789 -6.86729 13.1317
head 7.18348 -2.72423 5.63526
rclavicle -6.36111e-015 6.36111e-015
rhumerus -0.0825089 26.3269 -78.8063
rradius 66.2626
rwrist 7.17105
rhand -14.5092 23.5352
rfingers 7.12502
rthumb 11.6381 -6.12164
lclavicle -6.36111e-015 6.36111e-015
lhumerus -2.08758 -23.4988 89.6305
lradius 58.4637
lwrist -23.3639
lhand -15.619 30.133
lfingers 7.12502
lthumb 10.5677 59.8473
rfemur -49.1866 -2.51427 11.405
rtibia 64.9523
rfoot 6.32994 -5.96905
rtoes 0.380649
lfemur -45.164 8.48402 -11.2598
ltibia 60.3389
lfoot 9.66061 -9.27886
ltoes 0.603031
34
root 21.8255 13.0767 3.11257 -171.072 -83.5099 149.048
lowerback 30.1533 2.4728 -1.1393
upperback 15.9175 0.89832 3.12569
thorax 1.41792 -0.664087 3.83472
lowerneck -19.561 -6.20026 -13.0948
upperneck 9.93588 -6.97147 13.2852
head 7.19261 -2.76939 5.68375
rclavicle 7.95139e-015 2.06736e-014
rhumerus 0.0599098 26.2598 -78.7827
rradius 66.1358
rwrist 6.93147
rhand -14.2327 23.7776
rfingers 7.12502
rthumb 11.9047 -5.86397
lclavicle 7.95139e-015 2.06736e-014
lhumerus -1.86061 -23.2755 89.6324
lradius 58.222
lwrist -23.5832
lhand -15.1515 29.6234
lfingers 7.12502
lthumb 11.0186 59.3142
rfemur -49.1638 -2.44941 11.3778
rtibia 64.9314
rfoot 6.32561 -5.95234
rtoes 0.163263
lfemur -45.1325 8.51793 -11.3042
ltibia 60.3253
lfoot 9.46514 -9.4863
ltoes -1.72384
35
root 21.8256 13.0761 3.11193 -169.904 -83.4837 147.827
lowerback 30.0351 2.46722 -1.30437
upperback 16.0243 0.833033 3.15565
thorax 1.59742 -0.720539 3.97935
lowerneck -19.6719 -6.3767 -13.5669
upperneck 10.188 -7.14535 13.5979
head 7.34912 -2.83981 5.84942
rclavicle 0 3.73715e-014
rhumerus 0.508736 26.2926 -78.5718
rradius 65.9242
rwrist 6.66622
rhand -14.0372 23.8941
rfingers 7.12502
rthumb 12.0932 -5.73643
lclavicle 0 3.73715e-014
lhumerus -1.64149 -23.0727 89.5766
lradius 58.1401
lwrist -23.7077
lhand -14.8258 29.1678
lfingers 7.12502
lthumb 11.3328 58.8416
rfemur -49.1323 -2.53926 11.2447
rtibia 64.9346
rfoot 6.32829 -5.88672
rtoes -0.0390548
lfemur -45.0442 8.51419 -11.45
ltibia 60.3044
lfoot 9.35592 -9.61822
ltoes -2.98471
